# xmcd CD database file
#
# Track frame offsets:
#	160
#	17643
#	19911
#	48343
#	77022
#	101912
#	124546
#
# Disc length: 2785 seconds
#
# Revision: 0
# Processed by: cddbd v1.4PL0 Copyright (c) Steve Scherf et al.
# Submitted via: CDex 1.50beta9
#
DISCID=4e0adf07
DTITLE=Eric Burdon and The Animals - Every one of us
DYEAR=1968
DGENRE=Blues
TTITLE0=White houses
TTITLE1=Uppers and downers
TTITLE2=Serenade to a sweet lady
TTITLE3=The immigrant lad
TTITLE4=Year of the guru
TTITLE5=St: James infirmary
TTITLE6=New York 1963 - America 1968
EXTD=YEAR: 1968
EXTT0=
EXTT1=
EXTT2=
EXTT3=
EXTT4=
EXTT5=
EXTT6=
PLAYORDER=
